inDegrees=no
num_controls=7
num_derivatives=13
num_iterations=112
num_multipliers=7
num_parameters=0
num_slacks=7
num_states=26
objective=0.445909
objective_accelerations=0.056826
objective_balance=0.003393
objective_effort=0.022537
objective_height=0.357620
objective_ligament=0.005532
solver_duration=1499.837337
status=Solve_Succeeded
success=true
DataType=double
version=3
OpenSimVersion=4.5
endheader
time	/jointset/ground_pelvis/pelvis_tilt/value	/jointset/ground_pelvis/pelvis_tx/value	/jointset/ground_pelvis/pelvis_ty/value	/jointset/hip_l/hip_flexion_l/value	/jointset/hip_l/hip_adduction_l/value	/jointset/hip_l/hip_rotation_l/value	/jointset/back/lumbar_extension/value	/jointset/patellofemoral_l/patellar_flexion_l/value	/jointset/knee_l/knee_flexion_l/value	/jointset/knee_l/knee_adduction_l/value	/jointset/knee_l/knee_rotation_l/value	/jointset/ankle_l/ankle_angle_l/value	/jointset/subtalar_l/subtalar_angle_l/value	/jointset/ground_pelvis/pelvis_tilt/speed	/jointset/ground_pelvis/pelvis_tx/speed	/jointset/ground_pelvis/pelvis_ty/speed	/jointset/hip_l/hip_flexion_l/speed	/jointset/hip_l/hip_adduction_l/speed	/jointset/hip_l/hip_rotation_l/speed	/jointset/back/lumbar_extension/speed	/jointset/patellofemoral_l/patellar_flexion_l/speed	/jointset/knee_l/knee_flexion_l/speed	/jointset/knee_l/knee_adduction_l/speed	/jointset/knee_l/knee_rotation_l/speed	/jointset/ankle_l/ankle_angle_l/speed	/jointset/subtalar_l/subtalar_angle_l/speed	/forceset/tau_hip_flexion_l	/forceset/tau_hip_adduction_l	/forceset/tau_hip_rotation_l	/forceset/tau_knee_flexion_l	/forceset/tau_ankle_angle_l	/forceset/tau_subtalar_angle_l	/forceset/tau_lumbar_extension	lambda_cid13_p0	lambda_cid13_p1	lambda_cid13_p2	lambda_cid13_p3	lambda_cid13_p4	lambda_cid13_p5	lambda_cid14_p0	/jointset/ground_pelvis/pelvis_tilt/accel	/jointset/ground_pelvis/pelvis_tx/accel	/jointset/ground_pelvis/pelvis_ty/accel	/jointset/hip_l/hip_flexion_l/accel	/jointset/hip_l/hip_adduction_l/accel	/jointset/hip_l/hip_rotation_l/accel	/jointset/back/lumbar_extension/accel	/jointset/patellofemoral_l/patellar_flexion_l/accel	/jointset/knee_l/knee_flexion_l/accel	/jointset/knee_l/knee_adduction_l/accel	/jointset/knee_l/knee_rotation_l/accel	/jointset/ankle_l/ankle_angle_l/accel	/jointset/subtalar_l/subtalar_angle_l/accel	gamma_cid13_p0	gamma_cid13_p1	gamma_cid13_p2	gamma_cid13_p3	gamma_cid13_p4	gamma_cid13_p5	gamma_cid14_p0
1.5	-0.3590239506278351	-0.01863699658822368	0.764364401455244	1.087071428631427	-0.4351060084769046	-0.2148569489256313	-0.2250157292473378	0.8014886941179621	0.8014886941177313	-0.1309475479217793	-0.1464068573150184	0.1348644749404934	-0.01565965974379083	0.6545439601074222	0.2643793113789644	0.5227515757840091	-2.408466215781321	0.2106021819840121	-0.7136379802899027	0.3150179796966097	-2.005645893780433	-2.005645893780861	-0.1312403512174571	0.1324093614949273	-0.4166141384654009	0.0275594001395256	-0.171408316936726	0.03233576535117005	-0.008446933517910692	-0.2032083938184545	0.03792950210662247	0.04071329537816664	0.1663794711388384	-20.01778965710327	-17.18002884293624	5.833442609163096	-6.910881387089604	-520.8967384748078	-59.86428470171301	-25.12458672718124	0.6396201488222519	0.6807360072495255	-0.507758102394643	-1.267489815769957	0.7046245702535372	-0.1822910634127589	1.471687399545962	-1.319596147979667	-1.319596147979712	0.1183611776587987	0.2357964762268271	-0.4963480377295177	0.51232847039552	4.734939167648374e-07	5.311937244834301e-07	-2.656634046798906e-06	-7.984563453476608e-08	6.675922364936276e-07	4.086544123550734e-08	4.341516270451193e-07
1.51	-0.352446616226376	-0.01595944444307546	0.7695654775171296	1.062925204853109	-0.4329661581617689	-0.2220012492158711	-0.2217931184110715	0.7813686535666066	0.7813686535667406	-0.132256795587007	-0.1450722634072821	0.1306737705304437	-0.01536009178215151	0.6608304229157416	0.2710949099746875	0.5173521731529094	-2.420441881553759	0.2173450622457422	-0.7151012488039223	0.3294745429725832	-2.018080401135213	-2.018080401135658	-0.1306186322803758	0.1345102910159943	-0.4214558846944436	0.03235728073161651	-0.1657321220915526	0.03165944205939671	-0.008090212858231262	-0.200025221133515	0.03764683216852001	0.04001111890143399	0.1617431115911423	-19.90176661537826	-16.90275730039635	5.797654466600884	-6.674189391033226	-517.0239712551336	-59.99975148642198	-26.03381253972259	0.6093030230142952	0.6615711974630973	-0.5726461090940606	-1.112080256957475	0.6557298062047605	-0.1098922001102403	1.428194104000414	-1.163178505062016	-1.16317850506458	0.03280938998507876	0.1970618926179252	-0.4674214911627901	0.4639558611282234	4.060576426823762e-07	9.71027203962153e-07	-1.843219382754181e-06	7.371079293750536e-08	5.726576857636453e-07	1.476640806713035e-07	3.877827902816359e-07
1.52	-0.3458091884615979	-0.01321581642962413	0.7747092365995788	1.03866932935727	-0.4307595570336013	-0.2291564916821934	-0.2184268312795701	0.7611327078465357	0.7611327078470354	-0.1335600796352123	-0.1437166960638224	0.1264367819429693	-0.01501245741308879	0.6665626327711611	0.2775944850395863	0.5112881798967536	-2.430396559285269	0.2239523445903521	-0.7158264155064888	0.3437532387436512	-2.028826927523386	-2.028826927523848	-0.1300476278132023	0.136604048639913	-0.4258709739503322	0.03717268162420141	-0.160055927246382	0.03098311876762507	-0.007733492198542327	-0.1968420484485755	0.03736416223041863	0.03930894242470373	0.1571067520434422	-19.78895875868785	-16.62791416747348	5.765671415499522	-6.467946337116477	-513.2179588260398	-60.18059835946651	-26.94271489576219	0.5287695582423113	0.6375313010846643	-0.640676227405881	-0.8632922075843956	0.6775049868294934	-0.03467070112213399	1.436113898564882	-0.9819999546579521	-0.9819999546579306	0.1082182836772501	0.2343620967971582	-0.4110166430986872	0.5158325304943218	3.859476769984364e-07	1.238977790471144e-06	-1.482220234161988e-06	1.533835301976777e-07	5.524547218064966e-07	2.336998609467716e-07	3.747841080816242e-07
1.53	-0.3391172020866053	-0.01040834332407912	0.7797891295822077	1.014323828904941	-0.428487719771952	-0.2363156887176985	-0.2149190190503467	0.7407976346170854	0.7407976346172047	-0.1348579905345191	-0.1423405123078832	0.122157707305454	-0.01461678844488016	0.6717297241440883	0.2838557223473518	0.5045857730009776	-2.438350886818887	0.2303914699348135	-0.7159297380388072	0.3577564694641471	-2.037896515704823	-2.037896515705277	-0.1295111114409037	0.1386100639801169	-0.4298691172198231	0.04196679776937845	-0.1541368731966512	0.02994265046042527	-0.007403621328251447	-0.1940630791645676	0.03744926285594458	0.03849857296658896	0.1522453616895054	-19.57159553235015	-16.32223126118109	5.726305122293652	-6.251058938219447	-509.5250660837235	-60.34960671117978	-27.85138553502369	0.4949603770037924	0.6137889236997923	-0.7005907955398794	-0.7085776006581429	0.6236093976694543	0.0147008164330698	1.37451701324691	-0.8258397033363006	-0.8258397033352293	0.03004417820775324	0.1799653091195963	-0.3829451055401266	0.4620293788394336	4.161219139879251e-07	1.324302803199796e-06	-1.601912570738108e-06	1.545548466074956e-07	6.116540687954828e-07	2.976751033643914e-07	3.972412151053008e-07
1.54	-0.3323766885078461	-0.007539584049840993	0.7847988849209036	0.9899093702623945	-0.4261521926389749	-0.2434733462093827	-0.2112727566430275	0.7203805852151299	0.7203805852148706	-0.1361498010972604	-0.140945019587247	0.1178409048479106	-0.01417301267075773	0.6762680735244502	0.2898517187782094	0.4972606511101467	-2.444188197328812	0.2366903188558742	-0.7155185067423351	0.3714432743628416	-2.045222162024248	-2.045222162024695	-0.1288275605005414	0.1404658415798244	-0.4334165379559474	0.04679404280695711	-0.1482178191469244	0.02890218215322642	-0.007073750457942852	-0.1912841098805606	0.03753436348147136	0.03768820350847552	0.1473839713355638	-19.35570755019984	-16.01995132608684	5.691664476593743	-6.073417751193894	-505.8721421634894	-60.56779329770128	-28.76060395922562	0.4030211597292914	0.5844831257030704	-0.7652192264169013	-0.4398888028459005	0.6494497021493653	0.06824006463597529	1.372828734204633	-0.6332115822555554	-0.6332115822555602	0.1376251972899623	0.2043145486978625	-0.3208721364253695	0.5224583089746471	4.252188038657502e-07	1.438063119116702e-06	-1.594987896277458e-06	1.747449343915923e-07	6.377681531329226e-07	3.541459674662858e-07	4.069683953583655e-07
1.55	-0.3255939209365523	-0.004612244660881674	0.7897323533416171	0.9654470635654995	-0.4237544869182776	-0.2506246862246672	-0.2074913745295091	0.6998991078673473	0.6998991078674625	-0.1374339897422176	-0.1395320232069405	0.1134909412229524	-0.0136808727072393	0.6801768724289241	0.2955653848630101	0.4893360227645841	-2.44791629906063	0.2428138854872152	-0.7146403867031275	0.3847675588076971	-2.05077195913102	-2.050771959131016	-0.1280167098995069	0.1421227608965979	-0.4364962783827654	0.05162727253091341	-0.1422880586318579	0.0278336460473704	-0.006756848167302072	-0.1886824781384436	0.03777280775635579	0.0366133789989226	0.1424915130058502	-19.11165870207515	-15.6019350364633	5.631929919449985	-5.827659260205362	-502.4098293786548	-60.57566600719865	-29.67172221971003	0.368529055670064	0.5572402749797866	-0.8205123603597954	-0.2857310459816086	0.5882269598424775	0.1143303800276152	1.302389869643509	-0.4707413715152994	-0.4707413714476293	0.05205092194171686	0.1444707220172986	-0.289483765511015	0.4626458612192544	4.100309242453557e-07	1.584585849576595e-06	-1.442178404752713e-06	2.1684795441127e-07	6.257622609370608e-07	4.019704826391928e-07	4.020284860713781e-07
